<?xml version="1.0" encoding="utf-8"?>
<!-- Generator: Adobe Illustrator 23.0.1, SVG Export Plug-In . SVG Version: 6.00 Build 0)  -->
<svg version="1.1" id="Layer_1" xmlns="http://www.w3.org/2000/svg" xmlns:xlink="http://www.w3.org/1999/xlink" x="0px" y="0px"
	 viewBox="0 0 361 480" style="enable-background:new 0 0 361 480;" xml:space="preserve">
<style type="text/css">
	.st0{fill:#9E9E9E;}
</style>
<g>
	<path class="st0" d="M90.6,53.5c3.6-1.6,5.5-3.3,7.4-3.6c8.2-1.6,16.5-3,24.7-4.7c3.3-0.5,6.6-1.4,9.6-2.5
		c4.4-1.4,8.5-3.6,12.6-5.2c4.9-1.9,9.6-3.6,14.6-5.2c4.9-1.6,9.6-3.3,14.3-5.2c3.8-1.4,7.4-3.3,11-5.2c4.7-2.2,9.1-5.5,13.7-6.9
		c4.4-1.4,9.6-0.8,14-1.9s8.2-3.8,12.4-5.2s8.5-1.6,12.9-2.2c3.6-0.3,8.2-1.4,11,0c3.6,1.9,6,6.3,9.1,9.6c2.5,2.5-1.9,11.3,6.9,8
		c4.1-1.6,7.1-5.5,11-7.4c4.4-2.2,9.6-3,14-5.2c2.2-1.1,3.6-4.1,5.8-5.8c2.7-1.9,5.8-3.3,8.5-4.9c0,2.5,0.5,5.2,0.3,7.7
		c-0.8,10.7-7.1,17.6-15.9,22.8c-2.5,1.4-5.2,1.9-7.7,3c-0.3,0-0.5,0.3-0.5,0.5c2.5,8.5-4.9,6.3-8.5,7.1c-5.5,1.1-11.5-0.8-16.8,0.8
		c-3.3,1.1-5.5,6-7.4,9.6c-1.6,3-1.9,6.6-3,9.9c-0.5,1.6-2.5,2.7-2.7,4.4c-0.8,2.7,0,5.8-1.1,8.2c-2.7,6.9-6,13.7-9.3,20.3
		c-1.9,3.8-3.8,7.7-5.8,11.5c0,0.3,0,0.5-0.3,0.5c0-0.3-0.3-0.5-0.3-0.8c-0.3-0.8-0.5-1.6-0.5-2.5c0,0.8,0.3,1.4,0.3,2.2
		c-0.5,3.8-1.4,8-1.6,11.8c0,2.2,0.8,4.1,1.1,6.3c1.4-0.8,3-1.6,4.4-2.5c0.5-0.3,0.8-0.5,1.4-0.5c6.9-2.2,8.2-8.2,10.2-14
		c0.5-1.4,3.8-1.9,5.8-3c3.3-2.2,6-5.8,9.6-6.9c3-1.1,6.9,0.3,10.4,0.8c0.8,0,1.4,1.6,2.2,2.7c0.8-1.9,2.2-3.6,2.7-5.5
		c1.4-4.4,2.2-8.8,3.8-13.2c0.8-2.2,3-4.4,5.2-5.8c3-2.2,7.1-3,10.2-5.2c3.6-2.7,6.3-6.9,9.9-9.3c3.3-2.5,7.7-3.8,11.5-5.8
		c1.1-0.5,1.9-1.4,2.7-2.2c1.1-1.1,1.9-2.5,3.3-3.3c0.5-0.3,1.9-0.3,2.2,0.3c0.5,0.8,1.1,1.9,0.8,2.7c-1.1,3.8-2.5,7.7-3.6,11.8
		c0,0.5,0.5,1.4,1.1,1.9c0,0,0.8-0.3,1.1-0.5c5.2-3,10.2-5.8,15.4-8.8c0.3,0,0.8,0,0.8,0.3c1.6,1.9,4.4,3.6,4.4,5.5
		c0,1.6-3,3.6-4.9,4.9c-2.2,1.6-4.7,2.7-6.9,4.1c-0.3,0-0.3,0.5-0.3,0.8c0,0.5,0.5,1.4,0.5,1.4c0.8-0.3,1.9-0.5,2.7-1.1
		c2.2-1.6,4.1-3.6,6-5.2c0.3-0.3,1.6,0,2.2,0.5c1.1,0.8,2.5,1.6,3.3,2.7c6.3,8.2-3.6,8-6,11.5c-0.3,0.3,0.5,1.4,0.8,1.9
		c0,0,0.5,0,0.8-0.3c0.8-0.5,1.6-0.8,2.2-1.4c3.6-2.7,7.4-4.4,8.8,1.6c0.3,1.6-2.7,4.1-4.7,5.8c-1.6,1.6-3.8,2.5-5.8,3.8
		c-0.3,0.3-0.3,1.6,0.3,1.9c0.8,0.5,2.2,1.4,3.3,1.1c2.2-0.5,4.1-1.9,6.3-2.2c1.4,0,4.1,1.9,3.8,2.5c-0.8,2.5-2.2,4.7-3.6,6.9
		c-0.8,1.4-2.2,2.7-3.6,4.1c1.4,0.3,2.7,0.3,3.8,1.1c2.5,1.6,4.7,3.8,6.9,5.8c-1.9,1.4-3.6,3-5.8,4.1c-3.6,1.6-7.7,2.2-11.3,4.1
		c-2.7,1.6-4.7,4.9-7.4,6.6c-4.9,2.7-10.2,4.9-15.1,7.4c-1.9,1.1-3.3,3.3-5.5,4.1c-2.7,1.1-5.8,0.8-8.5,1.6
		c-1.1,0.3-1.9,1.6-2.7,2.5c-2.7,2.7-5.5,5.5-8.2,8c-3.6,3.6-6.9,7.1-11,10.2c-1.6,1.4-4.9,0.5-7.1,1.1c-2.5,0.8-4.9,1.6-7.1,3
		c-4.4,3-8.5,6.3-12.6,9.6c-0.5,0.5-0.5,2.5,0,3c1.9,1.9,4.1,5.2,6.3,5.5c8.5,0.5,11,4.9,10.4,12.6c0,1.1,3.8,2.2,5.8,3.6
		c1.1,1.1,1.9,2.7,2.7,4.1c3,4.7,6.3,9.1,9.1,14c1.1,1.9,1.6,4.7,2.2,6.9c0.3,1.4,0.3,2.7,0.5,4.1c0.5,4.1,2.2,8,1.9,12.1
		c-0.3,7.4-1.4,14.6-2.5,21.7c0,0.8-2.2,1.4-2.7,2.5c-1.9,3.6-3.8,7.1-5.5,11c-0.8,1.9-0.5,4.4-1.4,6.6c-1.4,5.2,2.7,12.1-4.9,15.9
		c-1.6,0.8-1.1,6-1.4,9.1c-0.3,2.2-1.4,4.9-0.5,6.3c1.1,1.4,4.1,1.9,6.3,1.9c3.3,0,6.6-0.5,9.9-0.8c5.2-0.3,10.4-0.5,15.4-0.8
		c3,0,6,0,9.1-0.3c1.4,0,2.5-0.3,3.8-0.5c2.2-0.3,4.1-0.5,6.3-0.5c2.2,0,4.7,0.3,6.9,0.5l0.3,0.3c-0.8,0.8-1.4,1.9-2.2,2.7
		c-3.3,3-6.3,5.8-9.6,8.8c-1.1,1.1-2.5,2.2-3.6,3.6c0,0,0.5,0.8,0.8,1.1c1.4,0.3,2.5,0,3.8,0.3c2.2,0.3,4.4,1.1,6.6,1.4
		c1.4,0,2.7-0.8,4.1-0.8c4.7-0.3,9.1-1.1,13.7-0.5c1.6,0.3,4.1,3.8,3.8,5.2c-0.5,2.2-3.3,4.9-5.2,4.9c-5.8,0.5-11.5,0-17.3-0.3
		c-1.9,0-3.6-0.5-5.5-0.5l-0.5,0.8c1.1,1.4,2.5,2.7,3.3,4.1c0.8,1.6,1.4,3.6,2.2,5.2c-1.1,0-2.5,0.3-3.6,0c-0.5,0-0.8-0.8-1.1-0.8
		c-2.7,0-5.2,0-8,0c-4.7,0.5-9.1,1.1-13.5,1.6c-1.6,0.3-4.4,0.8-4.7,1.9c-0.8,1.9,0.8,4.9,0,6.3c-3,4.4-6,9.1-10.2,12.1
		c-3,2.2-7.7,2.5-11.5,2.7c-3.8,0.3-7.7-0.8-11.5-0.8c-0.8,0-1.6,1.6-2.5,2.7c0,0.3-0.5,0.3-0.5,0.3c-1.6,1.9-3.3,3.6-4.7,5.5
		c-0.5,0.5-0.8,1.1-1.4,1.9c-0.8,1.1-1.9,2.5-2.7,3.6c-1.4,2.2-0.5,1.6,4.1,8.5c3.6,4.9,5.2,11.5,6,17.6c0.5,4.4-2.2,9.1-3.6,13.5
		c-0.5,1.4-1.1,3-1.9,3.8c-6,5.8-11.8,11.8-18.1,17.3c-2.7,2.5-5.8,4.4-9.1,6.3c-2.7,1.6-6,2.2-8.8,4.1c-4.7,2.7-8.8,6.3-13.2,9.1
		c-4.7,2.7-9.6,5.2-14.6,7.7c-1.1,0.5-3-0.5-4.4-0.3c-0.8,0-1.4,1.6-1.9,1.6c-2.5,0-4.9-0.3-7.1-0.5c-0.8,0-1.6-1.1-2.5-1.4
		c-1.9-0.5-4.1-1.4-6.3-1.6c-3-0.5-6,0-8.8-1.1c-3.8-1.4-7.1-3.6-10.7-6c-0.8-0.5-0.8-2.5-1.6-3.3c-0.8-0.8-3-1.1-3.6-2.2
		c-1.1-2.7-1.6-5.5-1.9-8.5c0-1.4,0.8-3,1.4-4.4c0-0.3,0.3-0.5,0.5-0.5c0.5,0.5,0.8,1.4,1.4,1.9c-0.3-2.7-0.5-5.5-0.8-8.5
		c-1.9,1.1-4.1,1.9-6,3c-4.9,3-9.6,6.3-14.8,9.1c-2.5,1.4-4.9,2.7-7.7,3.3c-3.8,0.5-8,0.5-12.1,0.5c-1.6,0-3.6-0.5-5.2-0.8
		c-0.5-0.3-1.1-0.8-1.9-1.1c0.5,0,0.8,0,1.1,0v-0.3c-0.5,0-1.1-0.3-1.6-0.3c-1.4-0.5-2.7-1.4-4.4-1.9c-0.5-0.3-1.1,0.5-1.6,0.5
		c-1.1-0.3-1.9-1.1-2.7-1.6l-0.5,0.3c-1.4-1.6-2.7-3.3-4.1-4.7c-2.2-2.2-4.4-4.9-6.9-6.3c-6.9-3.6-2.2-9.1-2.5-13.7
		c0-1.4,2.2-2.7,3-4.4c1.4-2.2,1.9-4.7,3.6-6.9c1.4-1.9,3.3-3.6,5.2-4.7c1.9-1.1,4.4-1.4,6.3-2.2c2.7-1.4,4.9-3.3,7.7-4.7
		c0.5-0.3,1.4,0.5,1.9,0.3c1.1-0.5,1.9-1.1,3-1.9c-0.5-0.3-1.4-0.5-1.9-1.1c-2.5-2.2-4.7-4.7-7.1-6.9c-2.7-2.7-6-5.2-7.4-8.5
		c-1.9-4.7-1.6-10.2-3.3-14.8c-1.1-3.6-3.8-6.3-5.5-9.6c-1.1-2.5-1.4-5.5-2.2-8.2c0-0.3-0.3-0.5-0.3-0.8c0,0.3-0.3,0.5-0.3,0.8
		c0,1.1,0,2.2,0.3,3.3c-0.5-0.8-0.8-1.9-1.4-2.7c-0.3-0.8-0.5-1.6-0.8-2.5c-2.2-4.4-4.7-8.8-6.6-13.2c-1.1-3-1.1-6.3-2.2-9.6
		c-1.1-3.6-2.2-7.4-4.4-10.2c-2.5-3.6-6-6.3-9.3-8.8c-2.7-2.2-6.3-3.3-9.1-5.2c-3-2.2-5.8-4.9-8.8-7.1c-3-2.2-6.3-4.1-9.3-6.6
		c-1.1-0.8-1.9-2.7-1.9-4.4c0-4.1,0.3-8.2,0.5-12.4c0-2.7,1.1-5.5,0-7.7c-1.6-3.3-4.9-6-6.9-9.3c-1.1-1.9,0-4.4-0.8-6.6
		c-2.2-7.1-4.7-14.3-7.1-21.4c-0.3-1.1,0.3-2.2,0-3.6c-0.3-1.1-0.8-2.2-0.8-3.6c-0.3-4.1,0-8-0.3-12.1c-0.3-5.2-1.1-10.7-1.4-15.9
		c0-2.7,0.8-5.5,1.1-8.2c0.3-4.9,0.3-9.6,0.5-14.6c0.3-2.5,1.4-4.7,1.9-7.1c0.3-1.6,0-3.6,0.3-5.2c0.5-3.3,1.4-6.6,2.2-9.9
		c1.1-5.2,2.5-10.4,3.6-15.9c1.4-6.3,2.7-12.4,3.3-19c0.8-10.4,1.9-20.9,1.1-31c-0.5-5.8-4.9-11-7.4-16.5c-0.8-1.6-0.8-3.8-1.4-5.8
		c-0.3-0.5-1.1-1.1-1.1-1.4c0.5-1.6,0.8-4.4,1.9-4.9c1.4-0.5,3.6,0.5,5.5,1.1c1.4,0.3,2.7,0.3,3.8,0.5c0.5,0,1.1,0.5,1.1,0.8
		c0.5,3.6,0.8,6.9,1.6,10.4c0.3,1.1,1.6,1.9,2.5,3.3c2.7,4.7,5.8,9.6,8,14.6c1.6,3.8,2.2,8,3.8,11.8c2.2,4.7,5.2,9.1,7.4,14
		c2.7,6.6,4.9,13.7,7.4,20.6c0.8,1.9,2.2,3.6,3,5.5c1.9,4.4,3.3,9.1,5.2,13.5c2.2,4.9,4.7,9.6,6.6,14.3c0.8,1.9,0.5,4.4,1.6,6
		c1.6,2.7,4.4,5.2,5.8,8c3,7.4,5.5,15.1,8.5,22.5c2.5,5.5,4.4,11.8,8.5,15.9c5.2,4.9,6-3,8.8-4.9c3-2.2,4.9-6,7.7-9.1
		c3.3-3.6,8-6.3,10.4-10.4c2.5-4.1,3-9.6,4.9-14c1.1-2.2,3.6-3.8,5.5-5.8c0.3-0.3,1.6,0.5,1.6,0.3c0.5-0.5,0.8-1.6,0.8-2.5
		c0.3-1.1,0.8-3.3,0.8-3.3c-2.7-0.8-6.3-0.5-8.5-2.2c-4.4-3-7.7-7.4-12.1-10.4c-2.7-1.9-6.3-2.7-9.6-3.8c-0.3,0-0.8,0.3-1.1,0
		c-3-0.5-6.3-1.1-9.3-2.2c-2.2-0.8-3.8-2.5-5.8-3.8c-3.6-2.7-7.7-5.5-10.7-9.1c-2.7-2.7-4.1-6.6-6.6-9.9c-3.3-4.1-8-7.7-10.2-12.4
		c-1.4-2.5,0-8.2,1.9-9.9c2.7-2.2,7.4-2.2,11.5-3c2.7-0.5,5.8-1.4,8.8-1.4c3,0,6,0.8,9.1,0.5c1.9-0.3,3.8-1.6,6-2.7
		c1.4-0.5,3.3-1.1,4.7-1.6c1.4-0.8,2.7-1.6,3.6-2.7c2.5-4.7,4.7-9.3,6.9-14c0.3-0.5,0-1.6,0.3-2.2c1.1-3.3,2.5-6.6,3-9.9
		c0-0.8-2.5-2.5-3.8-3.3c-4.9-2.7-10.2-5.2-15.1-7.7C93.6,55.9,92.8,55.1,90.6,53.5z M111.5,84.5c0.8,0.5,1.4,1.1,2.2,1.6
		c-2.7,3-4.9,6.3-8,8.8c-4.4,3.8-9.1,7.4-14,10.2s-12.4,1.1-13.2,9.9c-0.3,2.5-5.8,5.2-5.5,7.1c0.5,3,3.6,6,6,8.8
		c1.9,2.2,3.8,4.4,6,6.3c2.2,1.9,4.7,3.6,7.1,4.7c2.7,1.4,5.8,2.5,8.8,3.3c2.7,1.1,5.5,2.2,8.2,2.5c2.5,0.3,4.9-1.1,7.1-1.6
		c1.6-0.5,3.6-1.1,5.2-1.6c1.1-0.3,1.9-1.1,2.7-1.4c2.2-1.4,4.1-2.5,6.3-3.8c1.6-1.1,3-2.7,4.4-4.1c1.9-2.5,3.8-4.9,5.5-7.7
		c0.8-1.1,0.5-3,1.4-4.1c0.8-1.1,2.7-1.6,4.1-2.5c0,1.1,0.5,2.5,0,3.3c-1.9,4.1-3.3,8.8-6.3,11.8c-5.2,5.2-11.5,9.3-17.6,13.7
		c-1.9,1.4-4.4,1.6-6.6,2.5c-0.3,0-0.3,0.8-0.5,1.4c0,0.3,0,0.5,0,0.5c1.6,0.5,3.6,0.8,4.9,1.9c1.4,0.8,2.5,2.7,4.1,3.6
		c4.9,2.5,9.9,4.4,14.8,6.9c0.3,0,0.5,1.1,0.5,1.1c2.2,0,4.7-0.5,6.9-0.5c2.5,0,4.9,0,7.7,0.3c1.6,0,3.6-0.5,4.9,0
		c0.8,0.3,1.6,2.5,1.4,3c-0.8,1.1-2.5,2.5-3.6,2.5c-4.7,0.5-9.6,0.3-10.7,6.6c-1.4,6.9-3.8,13.7-4.7,20.9
		c-0.8,5.8,0.3,11.8,0.8,17.9c0,0.5,0.5,0.8,0.8,1.1c0.3-0.3,0.5-0.8,0.8-1.1c0.3-1.1,0.5-2.2,0.8-3.3l0.5-0.3
		c0.3,0.5,0.5,0.8,0.5,1.4c0.3-0.5,0.8-1.1,0.8-1.6c1.4-4.1,3-8,4.7-12.1c0.8-1.9,1.4-3.6,2.2-5.5c1.6-3.6,3.6-7.1,5.2-11
		c0.8-1.6,0.5-3.8,1.4-5.5c0.8-1.4,2.7-2.2,4.1-3.3c3.8-2.5,7.7-4.9,11.5-7.4c0.3-0.3,0.5-0.8,0.8-1.1c0.5,0,1.1,0,1.6,0.3
		c-0.3,0.3-0.3,0.5-0.5,0.8c0.5-0.3,1.1-0.8,1.6-1.1c0.5-0.5,0.8-1.4,1.4-1.6c3.3-1.6,6.3-3,9.6-4.7c1.6-0.8,3.3-1.9,5.2-2.5
		c1.6-0.5,3.6-0.3,4.9-1.1c4.1-2.7,8-6,11.8-9.3c1.9-1.6,4.7-3.6,4.9-5.5c0.5-5.5-0.5-11.3,0-17c0.5-4.7,2.2-9.3,3.6-14
		c0.8-2.7,1.6-5.5,2.2-8.2c0.3-1.1,0-2.2-0.3-3c0,0-1.1,0-1.4,0c-5.2,0.3-10.2,0.5-15.4,0.8c-0.5,0-1.9-0.5-1.9-0.8
		c0-0.8,0.3-1.9,0.8-2.5c0.5-0.3,1.6,0,2.2,0c2.5-0.3,4.9-0.5,7.1-1.6c3.8-1.9,7.7-4.4,11.3-6.9c2.2-1.6,4.4-3.8,6.3-6
		c0.5-0.5,0.5-1.4,0.5-2.2c0,0.5,0,1.4,0,1.9l0.5,0.3c0.3-0.3,0.8-0.5,0.8-0.8c0.5-2.7,1.4-5.8,1.6-8.5c0.3-1.4,0.5-3.6-0.3-4.4
		c-3-3.3-6-6.9-9.9-9.6c-1.9-1.4-4.9-0.5-7.7-0.5c-0.5,0-1.1,1.6-1.6,1.6c-2.5,0.3-4.9,0.3-7.4,0.8c-1.1,0.3-1.9,1.4-2.7,1.6
		c-0.8,0.3-1.6,0-2.5,0.3c-0.3,0,0,1.1-0.3,1.4c-0.5,1.1-1.1,2.2-1.9,3.3c-0.5-0.3-1.1-0.5-1.1-0.8c0-1.9,0-3.6,0-5.5
		c0,0,0.5,0,0.8,0c-0.5-0.5-1.1-1.6-1.9-1.6c-2.5,0-4.9,0.8-7.4,0.5c-5.2-0.3-10.4-1.1-15.7-1.9c-6.3-0.8-12.4-1.9-18.7-2.2
		c-2.5,0-5.2,0.8-7.4,2.2c-1.1,0.8-0.5,3.6-0.5,5.5c0,0.8-0.3,1.6-0.3,2.5c0,0.8,0.3,1.6-0.3,2.2c-0.3,0.5-1.4,0.8-1.9,1.1
		c-0.8-3.3-1.4-6.6-2.2-9.9c-0.3-1.1-1.4-1.9-2.2-2.7c-0.3-0.3-1.4,0.8-2.2,1.4c-0.8,1.1-1.6,2.2-2.5,3c-0.8-1.4-1.4-2.7-1.9-4.1
		c-0.5-1.1-0.5-1.9-0.8-3c-2.7,1.1-6.6,1.4-8.2,3.3c-3.8,4.7-6.6,10.2-9.6,15.4C114.8,77.6,113.1,81.2,111.5,84.5z M142.8,454.8
		c1.4,8.2,3.6,6.9,6.3,4.1c0.5-0.5,0.5-1.4,1.1-1.9c1.9-1.6,3.8-3.3,5.5-4.7c0.3,0.8,0.8,1.6,0.5,1.9c-0.5,1.4-2.2,2.5-2.2,3.6
		c-0.3,3.3-0.5,6.9,0.5,9.6c0.8,1.6,4.1,1.9,6.6,3c0.3-0.8,0.3-1.9,0.8-2.5c1.4-1.6,3-3,4.7-4.4c0.3-0.3,0-0.8,0.3-1.1
		c0.5-1.1,0.8-2.2,1.4-3.6c0-0.3,0.8-0.5,0.8-0.5c0.5,0.8,1.1,1.6,1.1,2.5c0,1.9-0.8,4.1,0,5.5c1.4,2.7,3.3,6.3,5.5,7.1
		c3,1.1,6.9,0,10.2-0.3c1.4,0,2.7,1.1,3.8,0.5c1.9-0.8,3.3-2.5,4.9-3.3c3-1.6,6.3-3.3,9.3-4.9c1.9-1.1,3.8-2.2,5.8-3.3
		c3.8-2.5,7.4-5.2,11.3-7.4c3-1.9,6.3-2.7,9.1-4.7c2.7-1.9,4.9-4.9,7.4-7.1c1.6-1.6,3.3-3,4.9-4.7c1.4-1.4,2.2-2.7,3.6-4.1
		s3.3-1.9,4.4-3.6c1.1-1.6,1.1-3.8,1.6-5.5c0.8-3.6,2.5-6.9,2.5-10.4c0-4.1-0.3-8.5-2.2-12.1c-1.1-2.2-5.2-3.3-8-3.6
		c-2.7-0.3-6,0.8-8.8,1.9c-2.2,1.1-3.6,3.8-5.8,4.7c-1.1,0.5-3.3-1.1-4.9-1.6c1.4-1.4,2.7-2.7,4.1-4.1h0.3c0.5-0.3,1.4-0.8,1.9-1.4
		c0.3-0.3,0.5-0.3,0.8-0.5c1.4-0.8,3-1.4,4.4-2.2c3-2.5,6-4.9,8.8-7.7s4.9-5.8,7.1-8.8c2.7-4.1,5.2-8.5,7.7-12.6
		c1.1-1.6,2.7-3,3.6-4.7c0.5-1.1,0.5-2.7,0.8-4.1c0.3-3.8,0.8-7.7,0.8-11.5c0-0.8-2.5-1.6-4.1-2.5c-0.3,0-0.8,0.3-1.1,0.5
		c-0.5,0.3-1.1,0.8-1.6,1.1c0,0-0.3,0-0.5,0c0,0.3,0,0.8,0,0.8c-2.2,3.8-3.8,8.2-6.6,11.3c-1.9,1.9-5.2,2.7-8.2,3.6s-6,1.4-9.1,1.9
		c-0.5,0-1.1-1.1-1.4-0.8c-4.1,1.1-8.2,3.3-12.4,3.6c-3.6,0.3-7.7-1.1-11.3-2.2c-3.6-1.1-7.7-2.2-9.9-4.7c-1.6-1.6-0.8-5.8-1.4-8.8
		c-0.5-2.7-0.8-5.5-1.9-8c-0.3-1.1-1.9-2.5-2.7-2.5c-1.6,0-3,1.1-4.7,1.4c-1.1,0.3-2.5-0.3-3.3,0.3c-2.7,2.2-4.9,4.9-7.7,7.1
		c-1.9,1.6-3.8,3.6-6.3,4.1c-3.8,0.8-8.2,0-11.5,1.4s-5.5,5.2-8.5,7.7c-0.8,0.5-2.2,0.5-3,1.1c-0.5,0.3-0.8,1.1-1.1,1.6
		c-0.3,0.5-1.1,0.5-1.4,1.1c-0.3,0.8,0,2.2-0.5,2.7c-3,2.7-6.3,4.7-8.8,7.7c-1.9,2.2-2.2,5.5-3.3,8.5v0.3c-1.6,4.1-3.6,8.2-4.7,12.6
		c-1.1,4.1-0.3,9.1-1.6,13.2c-1.9,5.8-0.8,10.2,2.7,14.3c3,3.3,6.3,6.6,10.2,9.3c2.7,1.9,6.3,2.7,9.6,3.6c1.4,0.3,3-0.3,4.4-0.3
		c2.7,0.3,5.5,0.5,8.2,1.4c2.2,0.5,4.1,2.2,6,2.2s3.8-1.1,5.8-1.9c1.9-0.8,3.3-2.2,5.2-2.7c3.6-1.1,7.1-1.9,10.4-3
		c4.1-1.4,8-2.7,11.8-4.4c1.9-0.8,3.3-2.7,4.9-4.1c0.8-0.5,1.9-0.3,2.7-0.3c-0.8,1.9-0.8,4.1-2.2,5.2c-3.3,2.7-6.9,4.9-10.7,6.9
		c-2.7,1.4-6,1.1-9.1,2.2c-3.6,1.4-6.6,3.6-10.2,4.9c-2.5,0.8-5.2,0.5-7.7,1.4c-1.4,0.5-2.7,2.5-4.1,2.5c-3.8,0-8-1.6-11.3-0.5
		C150.2,448.8,146.7,452.4,142.8,454.8z M164.5,299.1c-0.5-0.5-1.1-1.1-1.6-1.9c0.8-1.9,1.1-4.1,2.5-5.2c1.4-1.4,3.6-2.7,5.5-2.7
		c1.4,0,3.3,1.4,4.7,2.5c1.4,1.4,2.7,3,3,4.7c0.3,2.2-1.4,5.5-0.5,6.3c1.6,1.4,4.7,1.9,7.1,1.9c1.4,0,2.7-1.4,4.4-1.9
		c0,0,0.5,0.8,0.8,1.4c0.3-0.8,0.8-1.9,1.1-2.7c0.8-2.7,0.5-7.4,2.2-8c3.6-1.4,8.2-1.6,12.1-0.8c1.6,0.5,2.7,4.7,3.8,7.1v0.5
		c-0.3,0-0.8,0.3-1.1,0.3c0.5,0.3,1.4,1.1,1.9,1.1c1.9,0,3.8-0.5,5.8-0.5c0.8,0,1.4,0.3,2.2,0.3c0-1.4,0.3-2.7,0.3-4.1
		c-0.8,0.3-1.6,0.8-2.5,0.8c-1.6,0.3-3.3,0.8-4.9,0.8c-0.5,0-1.4-1.9-1.1-2.5c1.1-1.9,2.2-4.9,3.8-5.5c3.6-0.8,9.6,0.8,10.7-0.8
		c3-4.7,4.1-10.7,5.5-16.2c0.8-3.8,1.4-7.7,1.6-11.5c0-0.5-0.5-0.8-0.8-1.4c0,0-0.3,0-0.5,0c-2.7,1.6-5.5,3.8-8.5,5.2
		c-1.9,0.8-4.7,2.2-5.8,1.4c-3.8-2.7-7.1-6.6-10.7-9.9c-3-2.5-6.6-4.4-9.9-6.9c-2.5-1.9-4.4-4.7-7.1-6.6c-1.4-0.8-3.6-0.3-5.2-0.3
		c-0.8,0-1.9,0.5-2.7,0.5s-1.9-0.8-1.9-1.4c0-1.1,0.8-2.2,1.1-3.3c-3.8,0.8-7.7,1.9-11.8,2.7c-0.8,0.3-2.2,0-2.7-0.8
		c-0.5-0.5-0.8-1.6-1.1-2.5c0.5-0.3,1.1-0.5,1.6-0.5c1.1,0,2.5,0.8,3.6,0.5c2.5-0.8,4.7-1.9,7.1-3c0.3,0,0.5,0,0.8-0.3
		c0-0.3-0.3-0.5-0.5-0.8c-0.3-0.3-0.8-0.3-1.1-0.3c-1.4,0-3,0.3-4.4-0.3c-3.6-1.6-7.1-3.6-10.4-5.5c-0.5-0.3-0.8-1.4-1.1-2.2
		c0.8,0,1.9-0.5,2.5-0.3c2.2,1.1,4.4,2.5,6.6,3.8c0.3,0.3,0.8,0,1.4,0c0-0.3,0-0.5-0.3-0.8c0-0.3-0.3-0.3-0.3-0.5
		c0.3,0,0.5,0,0.8,0.3c1.1,0.5,2.2,1.1,3,1.6c-0.3-1.1-0.5-1.9-0.8-3c-0.5-1.6-0.8-3.3-1.4-4.7c-0.3-0.5-1.4-1.4-1.1-1.4
		c0.3-0.8,1.1-1.1,1.6-1.9c0.3,0.5,0.8,0.8,1.1,1.4c0.3,0.3,0.5,0.5,0.8,0.5s0.5,0.3,0.8,0.3c0-0.3,0-0.5,0-0.8c0-0.3,0-0.5,0-0.8
		c0.3,0.3,0.3,0.5,0.5,0.8c2.5,4.1,4.7,8.5,7.4,12.4c1.1,1.9,3,3.3,4.7,4.7c0.8,0.5,2.5,0,3.6,0.8c3.6,2.7,7.1,5.5,10.7,8.5
		c3.3,2.7,6.3,5.5,9.3,8.5c1.4,1.4,2.2,3.3,3.6,4.4c0.8,0.8,2.5,0.5,3.6,0.8c-0.5-0.3-1.1-0.5-1.4-0.8c-1.4-1.4-3-2.5-3.6-4.1
		c-0.3-1.1,1.1-2.7,2.2-3.8c0-0.3,1.4,0.5,2.2,0.8c1.4,0.5,3,0.8,4.4,1.6c0.3,0,0,1.1,0,1.6c0.8-0.3,1.4-0.5,2.2-0.8
		c-1.1-1.4-2.2-3-3-4.7c-1.4-2.7-2.7-5.5-4.1-8.5c2.7,0,5.8,0,8.5,0c0.5,0,1.4,0.8,1.9,0.8c1.1,0,1.9-0.3,3-0.5
		c-3-4.4-1.9-7.1,3.3-8c0.8,0,1.9,1.4,2.7,2.5c0.3,0.3-0.3,1.1,0,1.6c0,0.8,0,1.6,0.3,2.2c0.3,0.3,0.8,0.5,1.4,0.8
		c0-0.5,0-1.1-0.3-1.4c-0.5-2.5-0.5-5.2-1.4-7.4c-1.6-3.3-4.4-6-5.5-9.6c-0.3-0.8,2.7-4.4,4.4-4.4c2.7,0,5.5,1.9,8,3
		c0.3,0,0.5,0.3,0.8,0.5c0-0.3-0.3-0.5-0.3-0.8c0.3-2.2,0.5-4.4,0.8-6.6c0-1.9,6.3-0.5,2.2-4.7c-1.4-1.4-2.7-3.6-2.5-4.9
		c0.8-2.5,3-4.7,4.7-6.6c0.3-0.3,1.9,0.3,2.7,0.5c1.1,0.3,1.9,0.8,3,1.1c0-0.3,0-0.5,0-0.5c0.5-1.9,0.8-4.7,1.9-5.8
		c1.1-0.8,3.6,0.5,5.5,1.1c-0.8,2.5-1.6,4.7-2.7,7.1c0,0.3-0.5,0.5-0.8,0.8c0,0,0.3,0.5,0.5,0.5c1.9-1.4,4.9-2.2,5.5-3.8
		c1.1-3,1.6-6-3.8-7.4c-8-1.9-15.4-5.5-23.1-8.8c-4.4-1.9-8.2-4.4-12.4-6.6c-1.9-1.1-4.7-3.3-5.8-2.7c-3.8,2.5-7.7,5.2-10.7,8.8
		c-3,3.3-4.9,7.4-7.7,11.3c-3.6,4.9-6.9,9.9-10.4,14.8c-1.6,2.5-3.6,4.7-4.9,7.1c-1.6,2.5-2.7,5.2-4.1,8c-1.1-1.4-2.5-2.5-3.6-4.1
		c-1.4-2.7-2.7-5.5-3.8-8.5c-1.6-3.8-3-8-4.9-11.8c-0.8-1.6-2.7-2.7-4.1-4.1c0,0.3,0,0.5-0.3,0.5c-0.8,1.1-1.9,2.2-3,3h-0.3
		c0.3-0.5,0.3-0.8,0.5-1.4c-1.1,0.8-2.5,1.4-3.6,2.5c-1.4,1.6-2.5,3.6-3.3,5.5c-2.5,4.4-4.7,8.8-6.9,13.5c-1.4,3-1.9,6.6-3.3,9.9
		c-1.4,3-3.6,5.8-4.9,9.1c-1.9,4.9-3,10.2-4.7,15.1c-1.6,4.4-4.1,8.8-5.8,13.2c-1.6,4.7-2.2,9.9-3.8,14.6c-1.6,4.7-3.8,9.3-5.5,14
		c-0.5,1.1,0,3,0.8,4.1c0.5,0.8,2.2,1.4,3.6,1.6c2.5,0.8,4.9,1.4,7.7,1.6c1.4,0.3,2.5-0.5,3.8-0.5c0-0.3-0.3-0.8-0.3-1.1
		c0.8-3.6,1.4-7.4,2.7-10.4c0.5-1.1,3.8-0.8,5.8-1.1c1.1,0,2.5-0.5,3.3,0c0.8,0.5,1.4,1.9,1.4,2.7c0.8,3.8,1.1,7.7,1.9,11.3
		c0,0.5,2.7,0,4.4,0.3c-0.3-0.8-0.8-1.6-0.8-2.5c-0.3-2.5-0.8-4.9-0.5-7.1c0-0.5,3.6-0.8,5.5-0.8c0.8,0,2.5,2.2,2.2,2.5
		c-1.4,1.9-3.3,3.8-4.9,5.5c-0.5,0.5-0.8,1.1-0.8,1.6c0,0.3,0.3,0.8,0.5,1.1C159.6,302.6,162,301,164.5,299.1z M128,259.5
		c-1.9-3.3-3.8-6.6-5.8-10.2c-2.7-4.9-5.8-9.6-8-14.6c-1.1-2.2-0.8-4.9-0.8-7.4c0-1.1,1.6-2.2,1.6-3.6c0.5-4.9,0.8-9.9,1.4-14.8
		c0-0.8,0.8-1.6,1.1-2.5c-1.1,0-2.2-0.3-2.7,0.3c-3.6,3-6.9,6-10.4,9.3c-0.3,0-0.3,0.8,0,0.8c0.3,0.3,0.5,0.5,0.8,0.5
		s0.8-0.3,1.1-0.3c0,0.8,0.3,1.6,0,2.2c-1.4,2.2-2.7,4.4-4.4,6.3c-1.4,1.9-3,3.6-4.9,5.2c-1.1,1.1-2.2,1.6-3.3,2.7
		c-0.3,0.3,0,1.1,0,1.6c0,1.4,0.5,2.7,0.3,3.8c-0.3,0.5-2.2,0.5-2.7,1.1c-3,6-5.8,12.4-8.2,18.7c-0.8,2.2-0.8,5.2-1.9,7.4
		c-2.7,5.5-6.9,10.7-8.8,16.5c-1.6,4.9-1.9,10.4-1.6,15.9c0,6.6,0.8,13.2,1.4,19.8c0.8,7.4,1.4,15.1,2.7,22.5
		c0.5,3.6,2.2,6.9,3.8,10.2c1.4,2.7,2.7,5.5,4.4,8c1.4,2.2,2.7,4.1,4.4,6c1.4,1.4,2.7,2.5,4.4,3.6c2.7,1.9,5.8,3.6,8.8,5.5
		c1.1,0.8,2.5,1.1,3.6,1.9c0.3,0.3,0,1.6,0.3,1.6c1.4,0.5,2.7,0.5,4.1,1.1c3.6,1.9,6.6,4.4,10.2,6.6c1.1,0.5,3.3,1.4,3.3,1.1
		c1.9-3,3.6-6,5.2-9.1c1.6-3,2.7-6,4.7-8.8c0.8-1.1,3.6-1.1,4.4-2.2c1.4-1.9,1.4-4.9,3-6.3c3.3-3,7.1-5.5,10.7-8.2l0,0
		c0.3,0.3,0.5,0.8,1.1,1.1c0-0.8,0-1.9,0-2.5c0-0.3-0.8-0.5-1.4-0.8c-2.5-1.9-5.8-3.3-6.9-5.5c-2.2-4.1-4.1-8.2-9.9-7.7
		c-3.3,0.3-6.3-0.5-9.6-0.5c-5.8,0.3-11.3,0.8-17,1.1c-4.1,0.3-8.2,0.3-12.4-0.3c-2.2-0.3-4.4-2.2-6.6-3.6c1.4-1.1,2.2-2.5,3.8-3.3
		c1.4-0.8,3.3-0.8,4.9-1.1c2.7-0.5,5.2-0.8,8-1.1c3-0.3,5.8-0.3,8.8-0.3c3,0,6.3-0.3,9.3,0c2.2,0,4.7,0.5,6.9,0.5
		c2.7,0,5.5-0.5,8.2-0.8c0.8,0,1.9,0,2.2-0.3c1.6-2.7,2.7-5.8,4.9-8.2c2.5-2.7,5.8-4.9,8.8-7.1c1.1-0.8,2.2-1.4,3.6-2.2
		c-0.3-0.3-0.5-1.1-0.5-1.1c-1.9-0.3-4.7,0.3-5.8-0.5c-2.5-1.9-4.4-4.7-5.8-7.7c-0.8-1.6,0-4.1,0-6c0,0-1.4-0.3-1.6-0.3
		c-1.1,1.9-1.9,3.8-2.7,5.8c-0.5,1.9-0.5,5.5-1.1,5.5c-4.9,0.5-10.2,1.4-15.1,0.3c-4.9-1.1-10.2-3.8-6.9-11c1.1-2.2,2.2-4.1,3-6.6
		c1.4-4.7,2.2-9.3,3.6-14C124.7,269.4,126.3,264.7,128,259.5z M235.9,224.4c-0.8,0.3-1.4,0.8-2.2,1.1c0,0,0,0.3,0.3,0.3
		c2.5,1.6,6,3,6.9,5.5c1.1,3,1.6,8,0,10.4c-2.5,3.3-7.1,5.2-11,7.7c-0.5,0.3-1.9-0.5-2.7-0.8c-0.3,0-0.8,1.1-0.8,1.1
		c1.4,1.4,2.7,3,4.4,3.3c3,0.8,6,0.8,9.1,0.8c0.5,0,1.1-2.5,1.6-2.5c1.4,0,3.6,0.8,3.6,1.1c0,2.2-0.3,4.7-0.8,6.9
		c-1.1,3.6-2.7,6.9-3.8,10.4c-0.8,2.5-1.4,4.9-2.2,7.4c-0.5,1.6-1.9,3-2.5,4.7c-1.4,5.2-2.5,10.7-4.4,15.9c-1.4,4.1-3.8,8-6.3,11.3
		c-1.4,1.9-4.7,2.2-6.9,3.6s-4.4,3-6.6,4.4c-2.2,1.6-5.2,2.7-6.3,4.9c-1.6,3-1.6,6.9-2.2,10.4c-0.8,4.7-2.7,9.6-2.2,14.3
		c0.8,4.1,4.1,8.2,6.6,11.8c0.5,0.8,3.3,0.3,4.9,0.3c0-1.1,0-2.2,0-3c0-1.9,0-3.6,0-5.5c0-0.3,2.2-0.5,2.2-0.5
		c1.4,2.7,1.9,6,3.8,8.2c1.6,1.9,4.7,3,7.1,3.6c0.8,0,2.2-2.7,3.3-4.7c0.3-0.8,0.3-1.6,0.3-2.5c1.6,0.5,3.3,1.1,4.9,1.6
		c2.5,0.8,4.9,1.6,7.4,2.5c0-1.4,0-2.7,0.3-4.1c0.3-0.8,1.6-1.6,2.2-1.4c3.8,0.8,7.7,2.7,8.8-3.6c0.3-2.2,3.6-3.8,3.6-5.8
		c0-4.9-0.3-10.2-1.6-15.1c-2.5-9.6-1.1-18.1,4.1-26.4c2.2-3.6,4.4-6.9,6.3-10.4c1.9-3.3,3.3-6.6,4.9-9.6c0.5-0.8,1.1-1.9,1.9-2.7
		c2.5-2.7,5.5-4.9,7.1-8c1.6-2.5,1.9-5.8,3-8.8c1.1-3.3,1.9-6.9,3-10.2c0.3-0.5,0.5-1.1,1.1-1.6c0.3,0.3,0.5,0.5,0.5,0.5
		c0,0.5-0.5,0.8-0.5,1.4c0.8,0.3,1.4,0.5,2.2,0.8c-0.5-1.6-1.1-3.3-1.9-4.9c-0.5-0.8-1.1-1.9-1.4-2.7c-0.3-0.8,0-1.9,0.3-2.7
		c0.3-1.6,1.1-3.3,1.1-4.9c0-2.2-0.5-4.4-1.1-6.6c0-0.8-0.5-1.6-0.5-2.5c-0.3-1.6-0.3-3.6-0.5-5.2c0-0.3-0.3-0.8-0.3-0.8
		c-2.7-3.3-5.5-7.1-8.8-9.9c-2.7-2.2-3.6-9.6-10.2-4.9c-4.9,3.6-9.3,1.4-13.2-2.2c-0.8-0.8-2.7-0.5-4.1-0.8c0,0-0.5,0.8-0.3,1.1
		c0.3,0.5,0.5,1.1,0.8,1.4c2.7,2.5,7.7,4.7,8,7.1c0,4.1-2.2,9.1-4.9,12.6c-1.1,1.6-6,0.8-9.1,0.3
		C239.8,227.4,238.1,225.7,235.9,224.4z M32.4,102.1C32.1,102.1,32.1,102.1,32.4,102.1c-0.3,1.4-0.3,2.7-0.3,4.4
		c-0.3,5.2-0.3,10.7-0.8,15.9s-1.6,10.2-2.5,15.1c-0.8,4.7-1.4,9.3-2.2,14c-0.8,4.1-1.6,8.5-2.2,12.6c-0.8,7.7-1.1,15.1-1.4,22.8
		c-0.3,4.9-1.1,9.6-0.5,14.3c1.4,9.6,3.6,19.2,5.8,28.8c0.8,4.1,2.7,8.2,5.2,11.3c1.1,1.1,5.5-1.1,8.2-0.8c4.7,0.3,9.1,1.4,13.7,1.9
		c5.2,0.5,10.4,0.8,15.9,1.4c2.2,0.3,4.4,1.6,6.6,2.5c0.3,0,0.3,1.1,0.3,0.8c0.5,0,1.6,0,1.6-0.5c2.5-4.7,4.9-9.3,6.9-14.3
		c1.1-2.7,1.9-6,1.6-9.1c-0.3-2.2-2.7-4.4-3.6-6.6c-3-7.1-6-14.3-9.1-21.4c-1.9-4.7-3.6-9.6-5.8-14.3c-2.5-5.5-5.5-10.7-7.7-16.2
		c-1.6-3.8-3-8-4.7-11.8c-0.8-2.5-1.9-4.7-2.7-6.9c-2.5-5.8-5.2-11.3-7.7-17c-2.7-5.8-5.2-11.3-7.7-17.3c-1.6-3.8-3-7.7-4.4-11.5
		c-0.8-1.9-1.1-3.8-1.9-5.8c-0.3,0.8-0.8,1.9-0.8,2.7C31.8,99.4,32.1,100.7,32.4,102.1z M84,444.7c0.5,0.8,0.5,1.4,0.8,1.9
		c3.6,4.7,5.2,0,7.7-1.4c1.1-0.8,2.5-1.4,3.6-2.2c-0.3,1.4-0.3,2.7-0.5,4.1c-0.3,1.1-1.6,2.7-1.4,3c2.5,1.6,4.7,3.6,7.4,4.7
		c2.2,0.8,4.7,0.3,7.1,0.3c1.4,0,2.5,0.3,3.6,0c1.4-0.5,2.5-1.6,4.1-2.2c1.9-0.8,4.1-0.8,5.8-1.6c2.7-1.1,5.5-2.7,7.7-4.4
		c1.4-1.1,3.6-3.6,3.3-4.7c-0.8-3-3.3-5.8-4.7-8.8c-2.7-5.8-6.9-11.8-6.9-17.9c-0.3-6.6-3.6-8.2-8-9.6c-1.6-0.5-4.1,1.6-6,2.5
		c-4.7,1.6-9.1,3-13.7,4.7c-0.5,0-1.4-0.8-1.6-0.8c-3,2.7-6,5.8-9.1,8.5c-1.1,1.1-2.7,1.4-3.8,2.2c0.3,0,0.8,0.3,1.1,0.3
		c0.5,0,0.8-0.5,1.4-0.5c0.3,0,0.8,0.5,0.8,0.8c-1.9,3.3-4.7,6.6-6,10.2c-0.8,2.5-0.3,5.5-0.3,8.2c0,0.3,0.8,0.5,1.1,0.5
		c1.9-1.4,4.1-2.7,6-4.1c0.8-0.5,1.6-1.4,2.5-1.9c0.3,1.4,1.1,2.7,0.8,3.8C86.5,441.1,85.1,442.8,84,444.7z M230.2,167.5
		c0.5,1.1,0.8,2.5,1.1,3.8c0,0.3-1.1,0.8-1.9,0.8c-0.5,0.3-1.4,0-1.6,0.3c-0.5,0.3-0.8,0.8-1.4,1.1c4.1,2.2,8,4.9,12.4,6
		c4.9,1.4,5.2,0.5,3.6-3c-0.8-2.2-2.2-4.1-3-6.3c-1.6-4.1-3.3-8.2-4.7-12.1c0,0-0.5-0.3-0.5,0c-0.3,0.3-0.8,0.8-0.8,1.1
		c-0.5,1.4-0.8,2.7-1.1,4.1c-0.8-0.3-1.9-0.5-2.7-0.8c-0.5,0-0.8,0-1.4,0c-1.4-0.3,4.9-4.9-1.4-2.2c-0.5,0.3-1.9,0.3-2.2,0
		c-0.3-1.1-0.5-2.2-0.5-3.6c0-0.3,0.3-0.3,0.5-0.5c0,0.3,0.3,0.5,0.3,0.8c0,0.3-0.3,0.5-0.3,1.1c0.3-0.5,0.8-0.8,1.1-1.4
		c0.5-1.1,0.8-2.2,1.6-3c1.1-1.1,3.3-1.9,3.6-3c0.8-3,1.1-6.3,0.5-9.3c-0.3-1.9-1.9-3.6-3-5.2c0,1.6-0.3,3.3-0.3,4.9
		c0,0.5-0.3,1.4-0.8,1.9c-3.8,3.3-7.4,6.9-11.5,9.9s-8.5,5.5-13.2,8c-1.9,1.1-4.4,1.4-6.6,2.5c-1.4,0.5-2.2,2.2-3.6,2.7
		c-3.8,1.9-8,3.3-11.8,5.2c-3.6,1.6-6.9,3.6-9.9,6c-1.9,1.6-4.7,4.4-4.4,6.6c0,2.2,3.6,4.4,4.7,6.9c2.5,5.2,4.1,11,6.9,15.9
		c1.4,2.7,0.3,8.2,6,6.3c1.1-0.3,1.4-2.7,2.5-4.1c0.5-0.8,1.4-1.4,1.9-2.2c2.5-4.4,4.9-8.8,7.7-12.9c2.5-3.8,5.5-7.4,8-11.3
		c0.8-1.1,1.6-2.2,2.5-3c1.9-1.9,4.1-3.8,6.3-5.5c1.4-1.1,2.5-2.7,4.1-3.3c1.6-0.8,3.8-0.5,5.8-0.8
		C224.4,168.9,226.9,168.3,230.2,167.5z M251.6,24.9C251.9,25.2,251.9,25.2,251.6,24.9c0.3,0,0.8,0,0.8-0.3c0-3.6,0.8-7.1,0-10.2
		c-0.5-1.9-3.6-4.1-6-4.4c-3-0.5-6.3,0.5-9.3,1.1c-6.3,1.1-12.9,2.2-19.2,3.8c-6.3,1.6-12.1,4.1-18.1,6.3
		c-5.2,1.9-10.4,3.6-15.7,5.5c-6.9,2.7-13.7,6-20.6,8.8c-6.9,2.7-13.7,4.9-20.6,7.1c-1.1,0.3-2.2,0.8-3.3,1.4
		c-0.3,0.3-0.3,1.1-0.3,1.4c2.7-0.3,5.8,0,8.8-0.5c3.8-0.5,7.4-1.9,11-2.7c2.5-0.5,4.9-0.5,7.1-1.1c1.6-0.3,3-1.1,4.7-1.4
		c5.2-0.5,10.4-0.5,15.7-1.4c4.7-0.8,9.3-2.7,14.3-3.6c3.8-0.8,7.7-0.8,11.8-1.1c3.3-0.3,6.3-0.5,9.6-0.5c2.2,0,4.4,0.8,6.3,1.6
		c2.2,1.1,4.9,4.4,5.5,3.8c3.3-2.5,6-5.8,9.1-8.2C245.8,28.7,248.9,26.8,251.6,24.9z M21.4,127.4c-0.3,0.3-1.4,1.1-1.4,1.9
		c-0.5,3.6-0.5,7.4-1.4,11c-1.6,7.1-4.4,14.3-5.8,21.4c-1.6,8-2.5,16.2-3.3,24.5c-0.5,6,0,12.1,0.3,18.1c0.5,6.9,0.8,14,1.9,20.9
		c1.1,6.9,3,13.5,5.2,20.1c1.1,3-0.5,11,7.4,7.1c2.2-1.1,5.2-3,5.2-4.7c0.3-2.2-2.2-4.7-3.3-7.1c-2.2-5.2-5.5-10.4-6.6-15.9
		s-0.5-11.5-0.8-17c0-1.1-0.5-2.2-0.5-3.6c0-2.7,0.3-5.5,0.3-8.5c0-3.3-1.1-6.6-0.8-9.9c0.3-6.3,1.1-12.4,1.9-18.7
		c0.5-3.6,1.1-7.1,1.6-10.7c0.5-3,0.8-6,1.4-9.1c1.1-6,2.2-12.4,3-18.4c0.5-4.9,0.5-10.2,0.3-15.1c-0.5-10.7-1.6-21.7-2.2-32.4
		c0-0.5-0.3-1.4-0.5-1.9c0,0.8-0.3,1.6-0.3,2.5c0.8,6.3,1.6,12.6,2.2,19c0,1.6-0.8,3.6-1.4,5.5C23.6,113.1,22.8,120,21.4,127.4z
		 M248.9,125.4c0.5-2.2,0.5-2.5,0.5-2.5c-1.6-0.8-3.3-1.6-4.7-2.5c0,0,0,0.3,0,0.5c0,0.3,0.3,0.8,0.3,1.1c-0.3-0.3-0.5-0.8-0.8-1.1
		c-0.5-0.5-1.4-1.4-1.4-1.1c-3.8,2.2-7.7,4.7-11.5,7.1c-1.6,1.1-3.3,2.2-4.7,3.3c0.5,0.8,1.1,1.9,1.9,1.9c5.2,0,8.8,4.4,8.8,9.9
		c0,4.1,0.3,8.5,1.4,12.6c1.6,5.5,4.1,10.7,6.3,15.9c0.8,1.9,1.9,3.8,3.3,5.5c0,0,1.6-0.5,2.2-1.1c5.8-4.9,11.5-9.6,17.3-14.6
		c0.8-0.5,1.4-1.4,1.6-2.2s0.3-2.7,0-2.7c-4.7-1.6-8.5-3.6-6-9.6c0-0.3-1.4-1.4-2.2-1.9c-2.2-1.6-4.7-3.3-6.6-5.2
		c-0.3-0.3,0.8-1.9,1.1-3c0.3-1.1,0.8-1.9,1.1-3c-0.3,0-0.5,0.3-0.5,0c-1.9-0.5-3.8-1.1-5.5-1.6c-0.3,0,0-1.1-0.3-1.6
		C249.4,127.6,248.9,125.4,248.9,125.4z M241.2,58.4c-0.5-0.5-1.4-1.4-1.9-1.9c-3.6-4.4-6.9-9.3-10.7-13.5c-1.9-1.9-4.4-4.1-6.9-4.4
		c-4.4-0.5-8.8,0-13.2,0.5c-5.2,0.5-10.4,1.6-15.7,2.5c-7.4,1.1-14.8,2.5-22.3,3.6c-6.6,1.4-13.5,2.7-20.1,4.1
		c-1.4,0.3-2.2,1.4-3.3,2.2c1.4,0.3,3,0.5,4.7,0.8c3.6,0.3,7.4,0.3,11,0.8c4.4,0.5,8.8,1.6,13.5,2.2c5.8,0.8,11.5,1.4,17.3,1.6
		c3.8,0.3,7.4,0.3,11.3,0.3c1.1,0,2.2,0,3-0.3c1.6-0.8,3-2.2,4.4-2.5c2.7-0.3,5.5-0.3,8.2,0c4.1,0.5,8.2,1.1,12.4,1.9
		c0.8,0.3,1.4,1.6,2.5,2.5c1.6,0.8,3.3,1.6,4.9,2.2C240.6,60.1,240.9,59.5,241.2,58.4z M55.7,257.6
		C54.6,259.2,55.2,258.4,55.7,257.6h0.8c0.5,1.9,0.8,4.1,1.6,6c0.8,1.6,2.2,3.3,3.8,4.7c0.3,0.3,1.9-1.6,3-2.2
		c0.8-0.5,1.9-0.3,2.7-0.5c0.3,0,0.5-0.5,0.8-0.8c0.3,0.8,0.5,1.6,0.8,2.5c0,0.3-0.3,0.5-0.5,0.8c-1.9,1.9-4.7,3.6-5.8,6
		c-0.8,1.6,0,4.4,0.8,6.6c0.3,0.8,2.2,1.4,3.3,2.2c0.5-1.1,0.8-2.5,1.4-3.6c0.5-1.4,1.1-3,1.9-4.4c0.3-0.5,1.6-0.5,1.9-1.1
		c1.4-3.8,3.3-8,3.8-12.1c0.3-3.8,5.5-9.3-2.7-11.5c-4.4-1.1-8.5-2.5-12.9-3.8c-2.2-0.5-4.4-1.1-6.6-1.1c-2.5,0-4.7,0.3-7.1,0.8
		c-1.4,0.3-2.7,0.8-3.8,1.4c0.3,0.5,0.8,1.1,1.1,1.6c3,2.7,4.4,5.2,2.5,9.6c-3,6.6-5.5,13.2-7.4,20.3c-0.5,2.2,1.4,5.5,2.2,8.2
		c2.2-0.5,4.9-0.5,6-1.9c1.9-2.2,3.6-5.5,4.4-8.5C52.7,271.1,53.8,265.6,55.7,257.6z M157.4,317.5c0.5,0.5,0.8,0.8,1.4,1.4
		c0.8-0.5,2.7-1.1,2.7-1.9c0-1.1-0.8-2.2-1.6-3.3c-0.3-0.3-1.4,0.3-2.2,0.5c-1.9,0.8-4.1,1.1-5.2,2.5c-2.7,2.7-5.2,5.8-8,8.8
		c1.4,1.1,3,1.9,3.6,3c0.8,1.9,0.8,4.4,1.1,6.6c0,0.3-0.3,0.8-0.3,1.1c0,0.3-0.5,0.3-0.8,0.5c0-0.3,0-0.3,0-0.5
		c-0.8,0.3-1.9,0.5-2.7,1.1c-0.3,0.3-0.8,0.8-0.5,1.1c0.3,0.8,0.5,1.4,1.1,2.2c0.3,0.3,0.5,0.3,0.8,0.5c1.9,1.6,3.6,3.6,5.8,4.7
		c3.3,1.4,6.9,1.9,10.2,3c0.8,0.3,1.4,1.6,1.6,1.6c2.2-0.3,4.1-0.8,6-1.9c3.3-1.6,6.3-3.8,9.3-6c0.5-0.3,0.3-1.9,0.3-3
		c-0.8,1.1-1.4,2.7-2.5,2.7c-1.1,0.3-2.5-0.8-3.6-1.4v0.3c-1.9,1.4-3.8,3.3-6,3.6c-1.6,0.3-3.3-1.6-5.2-2.7
		c-1.1-0.5-2.5-1.1-3.3-2.2c-0.3-0.5,0.5-2.2,1.4-3c0.8-0.8,1.6-1.6,2.7-2.2c3-1.6,6-3,8.8-4.7c1.4-0.8,2.2-3.3,3.8-3.6
		c6.3-1.6,5.8,3,6,6.9c0,0.8,0.8,1.6,1.1,2.5c0.5-0.8,1.4-1.6,1.6-2.7c0.3-1.6,0.3-3.6-0.3-5.2c-0.5-2.5-1.9-4.7-2.7-6.9
		c-0.8,0.5-1.4,1.4-2.2,1.6c-0.8,0.3-1.6,0.5-2.5,0.5c-1.4-0.3-2.7-1.1-4.1-1.4c-1.6-0.3-3,0-4.7,0c-2.2,0.3-4.1,0.5-6.3,1.1
		c-2.2,0.5-4.4,1.4-6.9,1.9c-0.5,0-2.2-1.6-1.9-1.6C154.6,320.8,156,319.1,157.4,317.5z M173.3,301.3H173c0.3,0.5,0.3,0.8,0.5,1.4
		c0-0.3,0.3-0.8,0.3-1.1c0-1.6,0.3-3.3-0.3-4.7c-0.5-1.1-2.2-1.4-3.3-2.2c-0.3,0-1.1,0.3-1.1,0.5c-0.8,2.7-1.4,5.5-2.2,8
		c-0.5,1.4-1.1,3-1.6,4.4c2.5,0.8,4.7,1.6,7.1,2.5c2.2,0.8,4.7,1.1,6.3,2.5c3.6,3,6.9,6.6,9.9,10.2c1.6,1.9,2.7,4.1,4.1,6.3
		c2.2-1.4,4.7-2.5,6.3-4.4c1.9-2.2,3-5.2,4.9-7.1c3.6-3.3,7.7-6.3,11.8-9.1c1.4-1.1,3-1.6,4.7-2.5c0.8-0.3,2.7,0,3-0.5
		c0.8-1.9,1.4-4.1,1.9-6.3c0-0.3-0.3-0.5-0.5-0.8c-0.5,1.4-0.8,2.5-1.4,3.8c0,0-0.3,0.3-0.5,0.3c-2.7,1.1-5.5,2.7-8.2,3.6
		c-2.7,0.5-6.3,1.1-8-0.3c-1.9-1.6-2.2-5.2-3.3-8c0-0.3,0.3-0.8,0.5-1.1c-2.2,0.3-5.5-0.3-6.6,0.8c-2.2,3-2.7,7.1-4.9,10.2
		c-1.1,1.4-4.4,1.1-6.6,1.4c-1.1,0-2.2,0-3.3-0.3c-3.3-1.1-6.9-2.2-9.9-3.8c-0.8-0.3,0-3.3,0-4.9h0.3
		C173,300.7,173.3,301,173.3,301.3z M261.2,104c-0.5-0.3-1.1-1.1-1.9-1.6c-0.3,0.5-0.5,1.1-0.8,1.4c-3,3.3-6.3,6.6-9.3,9.9
		c-0.8,0.8-1.9,1.6-2.2,2.7c-0.3,0.5,1.1,1.4,1.9,2.2c0-0.8-0.3-1.9,0-2.5c0.8-1.1,1.9-1.9,3-2.7h0.3c1.9,0,4.1,0,6,0
		c1.4,0,2.7,0.3,3.6,1.1c0.8,0.5,1.4,2.2,1.4,3.3c-0.3,1.1-1.6,1.9-2.5,3c-0.5,0.8-1.4,1.6-1.6,2.5c-0.3,0.3,0,0.8,0.3,1.4h0.5
		c2.7,0.8,5.5,1.6,8.2,2.5c-0.5,1.6-1.1,3.6-1.6,5.2c-0.3,0.5-0.5,1.1-0.8,1.6c1.9,0.3,4.1,0.3,5.8,1.1s2.7,2.5,3.8,4.1
		c0.3,0.3-0.8,1.6-1.1,2.7c-0.5,1.4-0.8,2.7-1.4,4.1l0.3,0.3c0.5-0.5,1.1-1.4,1.9-1.9c0.5-0.3,1.4-0.8,1.9-0.5
		c4.7,1.9,8,4.1,3.3,9.3c-1.4,1.4-2.2,3-3.6,4.4c-0.5-0.3-0.8-0.8-1.4-1.4c-0.3,1.1-0.3,2.5-0.5,3.6c0.8-0.3,1.6-0.3,2.2-0.8
		c0.8-0.5,1.4-1.4,2.2-2.2c2.7-3.6,6.3-6.9,8.2-10.7c0.5-1.1-3.6-4.1-4.9-6.6c-2.5-3.6-4.9-7.4-7.4-11.3c-2.7-4.4-5.2-8.8-7.7-13.2
		c-0.5-1.1-1.4-2.2-1.9-3C264,109.8,262.9,107,261.2,104z M289,26c2.2-2.2,4.1-4.1,5.5-6.3c1.1-1.4,1.6-3.6,2.2-5.2
		c-0.5,0.3-1.1,0.3-1.6,0.8c-0.8,0.8-1.6,1.9-2.7,2.5c-3,1.1-6,2.2-9.1,3c-0.5,0-2.2-2.5-2.2-2.5c-3,2.2-5.8,5.2-9.1,6.9
		c-4.9,2.5-10.7,3.6-15.9,5.5c-3.6,1.1-6.9,1.9-10.2,3.6c-1.1,0.5-1.6,2.7-2.5,4.1c0.5,0,0.8,0.3,1.4,0.3c4.1-0.5,8-1.1,12.1-1.4
		c3.6-0.3,7.7,0.8,11-0.5c3-1.1,4.9-4.7,8-6C279.9,28.5,284.8,27.4,289,26z M272.2,352.4c-2.5,5.8-3.8,9.9-6,13.7
		c-2.2,3.8-4.7,6.9,2.7,5.5c0.8-0.3,1.9-0.3,2.7-0.5c3-0.8,6.3-1.1,8.8-2.7c2.5-1.4,4.4-3.6,6.3-5.5c1.1-1.1,1.9-2.7,2.5-4.4
		c0.3-0.5-0.5-1.4-0.5-2.2c0.3-1.1,1.4-2.5,0.8-3.3c-0.8-1.4-2.5-3.8-3.6-3.6c-4.4,0.5-8.8,1.6-13.2,2.7
		C272.2,352.4,271.1,352.6,272.2,352.4z M129.6,182.9c1.1-0.3,2.2-0.8,3-1.1c0.5,2.2,1.6,4.1,1.6,6.3c0,0.8-1.6,2.7-2.7,2.7
		c-1.4,0-2.7-0.8-3.8-1.9c-0.5-0.5-0.3-2.2-0.3-3.3c0-0.3,0.5-0.5,0.8-0.8c-0.3-0.3-0.8-0.5-1.1-0.8c-0.3,0.5-0.5,0.8-0.5,1.4
		c-0.8,3-1.9,6-2.7,9.3c-0.3,1.1-0.3,2.2,0,3.3c0,0.3,1.1,0.8,1.4,0.8c1.1-0.8,2.2-1.6,3.3-2.5c1.1,2.2,3,4.4,3,6.3
		c0,1.1-3,2.5-4.7,3.6c-0.8-1.6-1.9-3.3-2.7-5.2c-0.3-0.5-0.5-1.1-1.1-1.9c0,0-0.5,0-0.5,0.3c-0.3,3.6-0.5,7.4-0.5,11
		c0,1.1,0.8,2.2,1.1,3.3c3-1.9,6-3.8,9.1-6c0.8-0.5,2.2-0.5,2.2-0.8c0.5-3.6,0.3-7.4,1.1-11.3c0.5-2.7,2.5-5.2,3-7.7
		c0.5-2.2,0-4.9,0-7.4c0-2.2,0.3-4.4,0.5-6.6c-1.4,0.5-2.7,1.4-3.8,1.9s-2.2,1.6-3.3,2.2c-1.1,0.8-2.5,1.4-3.8,1.9
		C128.5,181.2,129.1,182,129.6,182.9z M260.1,307.3c0.3,0,0.5,0.3,0.5,0.3c-0.5,1.4-1.4,2.5-1.9,3.8c-0.8,1.6-1.9,3.3-1.9,4.9
		c0,3,0.5,6.3,1.4,9.3c0.5,1.4,2.2,2.5,3.6,3.3c1.1,0.5,3.6,0,3.6-0.5c1.4-3.8,2.5-8,3-12.1c0.5-2.7-0.3-5.8-0.3-8.5
		c0.3-12.1-3.8-6-7.7-1.9C260.4,306.5,260.4,307,260.1,307.3z M98.3,385.9c-0.5,1.4-0.8,1.6-0.8,1.9c0-0.3,0-0.8-0.3-0.8
		c-1.4-1.4-2.7-2.5-4.1-3.6l-0.5,0.5c0.8,1.4,1.6,2.5,2.5,3.6c1.4,1.9,3,3.8,4.7,6c1.4,1.9,2.7,4.7,4.7,5.5
		c4.4,1.6,9.1,2.2,13.7,2.7c1.1,0,3.3-1.4,3.6-2.5c1.4-6.6-3.8-7.4-8.5-8.5c-3.8-0.8-7.7-1.6-11.5-2.7
		C100.2,387.5,99.4,386.4,98.3,385.9C98,385.9,97.5,386.4,98.3,385.9z M28.3,285.9c-0.3-0.8-0.5-1.6-0.8-2.2
		c0.8-0.5,1.6-1.4,1.9-2.2c0.3-0.3-0.8-1.1-1.4-1.9c-0.3-0.8-0.5-1.6-0.8-2.7c-0.5,0.5-1.4,1.4-1.4,1.9c1.4,4.9,2.7,9.9,4.1,14.8
		c2.5-1.4,7.4,3.6,7.1-3c0-1.4-1.6-2.7-3-3.8c-0.8-0.8-2.2-0.8-3.3-1.1C30.2,285.6,29.1,285.9,28.3,285.9z M103.3,52.1
		c-1.9,0.8-3.6,1.4-5.2,2.2c0.8,1.1,1.4,2.5,2.2,3.6c0,0,0.8-0.3,1.4-0.5c0.3,0,0.5,0,0.8,0.3c1.4,0.5,3,1.4,4.7,1.9
		c2.5,0.8,4.9,1.4,7.4,2.2c0,0,0,0.8,0,1.1c0.5-0.5,1.4-0.8,1.6-1.4c0-0.3-0.3-1.1-0.8-1.4c-2.5-0.8-4.9-1.4-7.1-1.9
		c-1.1-0.3-2.5-0.5-3.6-0.8c0.5-0.8,0.8-1.9,1.4-2.2c1.6-0.5,3.6-0.5,5.5-1.1c2.5-0.5,4.7-1.4,6.9-1.9c1.4-0.3,3-0.3,4.7-0.5
		c0,0,0-0.5,0-0.8c-0.8,0-1.4,0-2.2,0C114.8,51.3,109,51.8,103.3,52.1z M133.5,247.7c-0.5,0.3,0.5,0,0.5-0.3c0.8-3,1.4-5.8,2.2-8.8
		c0.3-1.1,1.4-2.2,1.9-3.3c-0.3,0-0.8-0.3-0.8-0.3c-3.3,3-7.4,6-9.9,9.6c-0.8,1.4,1.4,4.9,2.5,7.4c0,0.3,1.4,0.3,1.6-0.3
		C131.8,251,132.4,249.9,133.5,247.7z M124.7,226.5c-0.8-1.9-1.4-2.7-1.9-3.8c-1.1,4.1-2.7,8.2-3.3,12.4c-0.5,4.1,3,4.4,4.4,1.9
		C125.2,234,124.4,229.8,124.7,226.5z M55.5,308.7l-0.3-0.3c-0.3,0.3-0.5,0.5-0.5,0.5c2.5,3.3,4.9,6.6,7.7,9.9
		c0.3-4.4,0.8-8.8,0.8-13.2c0,0-2.7-0.8-3.6-0.5C57.9,305.9,56.5,307.6,55.5,308.7z M287,120c-0.5,1.1-0.5,1.6-0.8,1.9
		c0,0-0.3,0-0.5,0c-1.6,0.3-3.3,0.8-4.7,1.1c0.5,0.8,0.8,1.9,1.4,2.7c0.8-0.5,1.4-1.1,2.2-1.4c2.7-1.6,5.8-3,8.5-4.9
		c2.7-1.9,5.5-4.1,8.2-6.3c1.4-1.1,3-2.5,4.4-3.6c0.3-0.3-0.3-1.1-0.3-1.4c-1.4,0.8-2.7,1.4-4.1,2.2c-2.7,1.6-5.2,3.3-7.7,5.2
		C290.6,116.9,288.4,118.6,287,120z M307.1,122.2c1.4,1.4,2.7,2.7,4.1,4.4c0.3-0.8,0.3-1.4,0.5-2.2c0.3-0.8,0.3-1.6,0.5-2.5
		c-0.5,0-1.1,0-1.4,0c-4.1,2.5-8.2,4.7-12.1,7.1c-0.5,0.3-0.3,2.5-0.8,2.7c-2.2,1.4-4.7,2.2-7.1,3.3c-1.4,0.5-2.2,1.6-3.3,2.5
		c0.8-0.3,1.6-0.5,2.7-0.8c0.5,0,1.4,0,1.9-0.3c2.2-1.4,3.8-2.7,6-4.1c1.9-1.1,4.4-1.6,5.8-3.3C305.5,127.6,306,124.6,307.1,122.2z
		 M134.8,223.8c-0.8-4.4-1.4-7.1-1.9-9.6c0-0.3-0.5-0.3-0.5-0.5c-0.3,0.3-0.3,0.5-0.5,0.8c-1.1,0.8-2.2,1.4-3,1.9
		c-0.8,0.5-1.6,0.8-2.2,1.4c-0.5,0.8-0.8,1.6-1.4,2.7c0,0,0.3,0,0.5,0c1.9,1.4,4.1,2.2,6,3.8c0.8,0.5,0.8,1.9,1.4,3
		C134,225.7,134.8,224.1,134.8,223.8z M299.4,66.7c-1.6,2.2-3.3,4.1-4.7,6.3c-1.4,2.2-2.5,4.7-3.6,6.9c-0.3,0.5-1.4,0.8-1.9,1.1
		c1.1,0.8,2.5,1.4,3.6,2.2c0-0.3,0.3-0.3,0.3-0.5c0.3-1.9,0.3-4.4,1.1-6c1.1-1.6,3-3,4.7-4.4c0.3-0.3,0.3-0.5,0.3-0.5
		c0.8-0.3,2.2,0,2.7-0.5c0.5-1.1,0.5-2.5,0.8-3.8C301.6,66.9,300.8,66.7,299.4,66.7z M308.5,322.2c0.5,0.3,0-0.3-0.3-0.3
		c-3.8,1.6-7.7,3.3-11.5,5.2c-0.3,0,0,1.4,0.3,2.2c0,0.3,0.5,0.8,0.5,0.8c2.5-0.8,4.9-2.2,7.4-2.7c0.8-0.3,1.9,1.1,3,1.6
		C308.2,326.8,308.2,324.9,308.5,322.2z M13.7,63.4c1.9,2.7,3.6,4.9,4.9,6.9c-1.1-3.8-1.9-7.7-3-11.5c0-0.3-0.3-0.3-0.3-0.5
		C14.8,59.8,14.2,61.7,13.7,63.4z M67,290.8c-0.3-0.3-0.5-0.8-0.8-1.4c-1.9,2.2-4.1,4.4-6,6.3c1.4,1.1,2.7,1.9,4.1,3
		C65.1,296.3,65.9,293.9,67,290.8z M49.7,298.3c0-0.5-0.3-1.4-0.5-1.9c-1.6,0.3-3.3,0.3-4.7,0.8c-1.6,0.8-3,2.2-4.7,3.6
		c1.4,0.5,3.3,1.4,4.4,1.1c1.6-0.5,3-1.9,4.4-3C48.9,298.5,49.4,298.3,49.7,298.3z M326.9,113.6c-0.8-0.3-1.4-0.8-1.6-0.8
		c-2.2,1.6-4.4,3.6-6.6,5.5c-0.3,0-0.5,0-0.5,0.3c-1.4,0.5-3,1.1-4.4,1.9c-0.3,0,0.3,1.4,0.5,2.2c0.5-0.5,0.8-1.1,1.6-1.4
		c0.8-0.5,2.2-0.8,3-1.4C321.1,117.8,323.6,115.8,326.9,113.6z M303,73c2.2,0.3,3.8,0.8,4.1,0.3c1.4-1.6,2.5-3.8,3.8-5.8
		c-1.1,0-2.2,0-3,0.3c-1.1,0.5-1.9,1.4-2.7,2.2C304.6,70.5,304.4,71.1,303,73z M315.9,109.5c2.2,0.3,3.6,0.5,4.9,0.3
		c0.8,0,1.9-0.5,2.7-1.1c1.1-0.8,1.9-1.6,2.7-2.7c0.3-0.3,0-0.8,0-0.8c-0.5,0-1.4-0.3-1.9,0c-1.4,0.3-3,0.3-4.1,0.8
		c-1.6,0.5-3,1.6-4.4,2.5C315.6,108.7,315.9,109.5,315.9,109.5z M312.6,75.7c-0.3-0.5-0.5-1.1-0.5-1.1c-0.8,0.3-1.6,0.8-2.5,1.4
		c-1.4,1.1-2.7,2.5-4.1,3.6c-0.8,0.5-1.9,0.8-2.2,1.4c-0.3,0.5,0,1.4,0,2.2c0.5-0.3,1.4-0.8,1.9-1.1c1.1-0.5,2.2-1.4,3-1.9
		C309.6,78.5,310.9,77.1,312.6,75.7z M332.4,335.9c-0.5,0.8-0.8,1.4-1.1,2.2c1.6,0.8,3.3,1.4,5.2,1.9c0.3,0,0.8-1.6,1.1-2.5
		C335.9,337,334.3,336.4,332.4,335.9z M103.5,330.7c-1.1,0.5-1.6,0.8-2.2,1.1c2.7,0.5,5.5,1.1,8.2,1.4c0.5,0,1.1-0.8,1.6-1.4
		C108.7,331.8,106,331.2,103.5,330.7z M309.3,131.5c2.7,1.1,4.7,1.9,6.9,3c-0.3-1.4,0-3.6-0.8-4.1c-1.1-0.8-3-0.5-4.7-0.8
		C310.4,129.8,310.1,130.4,309.3,131.5z M303.8,96.3c-0.5-0.3-0.8-0.5-1.1-0.5c-2.5,1.9-4.9,4.1-7.4,6c-0.3,0.3-0.3,1.4-0.3,2.2
		C298,101.5,300.8,99.1,303.8,96.3z M240.1,45.5c0.8,1.9,0.8,3,1.4,3.3c0.8,0.3,2.5,0.5,2.7,0c0.8-0.8,0.8-2.2,1.1-3.3
		C243.4,45.5,241.7,45.5,240.1,45.5z M336.5,107.9c-0.5-0.5-1.1-1.1-1.4-1.4c-0.3,0.8-0.5,1.4-1.1,1.9c-0.3,0.3-1.1-0.3-1.4,0
		c-1.1,0.8-2.2,1.9-3,3l0.5,0.8C332.1,110.6,334.3,109.2,336.5,107.9z M277.7,98.5c0,1.6,0,1.9,0.3,2.2c0,0,0.3,0,0.5,0
		c1.6-1.4,3.6-2.5,5.2-3.8c0.8-0.5,1.1-1.6,1.4-2.7c0,0-0.8-0.8-0.8-0.5C281.8,95.5,279.4,97.2,277.7,98.5z M321.7,99.4
		c0.3,0.3,0.5,0.5,0.5,0.8c1.1-1.1,2.5-2.2,3.6-3.3c0.3-0.3,0-0.8,0-1.1c-0.3,0-0.5,0-0.8,0c-1.1,0.8-2.2,1.9-3.3,2.7
		c-1.1,0.8-2.5,1.4-3.6,2.2c-0.3-0.3-0.5-0.8-0.5-1.1c-0.3,1.1-0.8,1.9-1.1,3c0.8-0.3,1.4-0.3,2.2-0.8
		C319.7,101,320.6,100.2,321.7,99.4z M310.9,113.1c0,0-0.3-0.5-0.3-0.3c-2.2,1.1-4.1,2.5-6,3.8c0,0,0,0.3,0.3,0.3
		c1.4,0.5,3.6,1.6,4.1,1.4C309.8,116.7,310.4,114.7,310.9,113.1z M56.3,301.5c-0.8-0.5-1.4-1.4-1.6-1.4c-1.6,1.4-3.6,2.7-5.2,4.4
		c1.1,0,2.2,0.5,3,0C53.8,304,54.9,302.9,56.3,301.5z M314.8,345c-1.6-0.8-3-1.6-4.1-1.6c-0.8,0-1.4,1.6-1.9,2.5
		c1.6,0.3,3.3,0.5,4.9,0.5C313.4,346.6,313.7,346.1,314.8,345z M297.2,85.3c0.5,0.3,0.8,0.8,1.1,1.4c0.5-1.1,1.4-1.9,1.9-3
		c0.3,0.3,0.8,0.5,1.1,0.8c0.3-0.8,0.3-1.4,0.5-2.2l-0.5-0.5C300,82.9,298.6,84.2,297.2,85.3z M300.5,120.5
		c-0.5,0.3-1.1,0.8-1.6,1.1c0.3-0.5,0.5-1.1,0.5-1.4c0-0.3-0.8-0.3-1.1-0.5c-0.5,1.6-0.8,3.3-1.4,4.9c0,0.3,0.3,0.8,0.5,1.1
		C298.6,124.1,299.4,122.4,300.5,120.5z"/>
	<path class="st0" d="M49.4,304.6"/>
	<path class="st0" d="M56.3,301.5"/>
	<path class="st0" d="M135.9,73.8c0,5.2,1.1,9.1-0.3,11c-2.7,4.4-6.3,9.6-10.7,11.3c-3,1.1-9.3-2.5-7.4-9.1
		c1.1-3.8,2.2-8.2,4.4-11.5c1.9-2.7,4.9-5.8,8-6.3C132.1,68.9,134.8,72.7,135.9,73.8z"/>
	<path class="st0" d="M201.9,87.3c0.8-2.7,1.1-5.2,2.2-7.7c0.3-0.8,2.5-0.8,3.6-1.4c1.1-0.8,1.9-2.5,3.3-3.3
		c1.1-1.1,2.7-1.6,3.8-2.5c0.8-0.5,1.9-1.9,2.7-1.9c2.5,0,4.9,0.5,7.7,1.1c0,0.5,0,1.1-0.3,1.6c-1.4,3.3-2.2,6.9-4.7,9.3
		c-1.9,1.9-5.5,1.6-8.2,2.7c-2.2,1.1-4.1,3.3-6.3,4.9c-0.5,0.5-0.5,1.9-0.8,1.9c-2.2-0.3-4.4-0.5-6.6-0.8
		C199.4,89.7,200.5,88.4,201.9,87.3z"/>
	<path class="st0" d="M154.9,113.4c-0.8,0.5-1.1,0.8-1.1,1.1c0,0,0.3,0.3,0.3,0.5c0.5,0.5,0.8,1.1,1.4,1.9c-0.3,0-0.8,0.3-1.1,0.3
		c-1.1,0.3-3,0.5-3,0.3c-1.9-6.9-5.5-3.3-9.1-1.9c-0.5,0.3-1.6,0-1.6,0c-0.3-1.1-0.5-2.2-0.3-3.3c0.3-1.1,1.4-1.6,2.2-2.5
		c0.8-0.8,1.9-1.9,2.5-1.6c2.7,1.1,5.5,2.5,8.2,3.6c0.5,0.3,1.4,0,1.4,0.5C154.9,112.5,154.9,113.1,154.9,113.4z"/>
	<path class="st0" d="M178.3,299.6c2.5-2.7,3.6-4.9,4.7-4.9c2.7,0,5.2,1.1,8,1.6c-1.1,1.9-1.9,4.9-3.3,4.9
		C184.8,301.8,182.1,300.7,178.3,299.6z"/>
	<path class="st0" d="M123.9,294.7c1.4-1.9,2.7-4.7,3.6-4.4c2.5,0,4.7,1.6,6.9,2.5c-1.9,1.9-3.6,4.1-5.8,5.5
		C128.3,298.5,125.8,296.3,123.9,294.7z"/>
	<path class="st0" d="M243.4,325.4c0.8-3.3,1.4-6,2.2-8.5c0-0.3,3,0.5,4.7,0.8c-1.4,2.7-2.7,5.5-4.4,8.2
		C245.8,326.3,243.9,325.7,243.4,325.4z"/>
	<path class="st0" d="M207.1,349.4c-1.4-1.4-3-2.2-3.8-3.6c-0.5-0.5,0.3-2.2,0.5-3.3c2.2,1.4,4.1,2.7,6.3,4.1
		C209.3,347.4,208.5,348,207.1,349.4z"/>
	<path class="st0" d="M222.5,353.5c-1.4-0.5-3.8-1.1-3.8-1.9c-0.3-1.6,0.8-3.6,1.1-5.2c1.4,1.4,2.7,2.7,4.1,4.4
		C224.1,351.3,223,352.6,222.5,353.5z"/>
	<path class="st0" d="M195.8,183.4c-3.6,2.5-7.1,4.9-10.7,7.4c0.3-3.3,0.3-6.6,0.8-9.9c0.3-1.4,1.1-2.7,1.9-4.1
		c0.3-0.8,0.8-1.6,1.4-2.2c0,0.5,0,1.1,0,1.6c0.3,0,0.8,0,1.1-0.3c3.6-3.8,7.4-7.7,11-11.5c0,0,0.3,0,0.5-0.3
		c-0.3,1.4-0.5,2.7-0.8,4.1c-0.3,0-0.3,0-0.5-0.3c-0.3-0.3-0.8-0.3-1.1-0.5c0,0.5,0,1.1,0,1.4c-1.1,1.9-2.5,3.8-3.8,5.8
		c-0.3,0.3-0.8,0.3-1.1,0.5c0.3,0.3,0.5,1.1,0.8,1.1c0.5,0,1.1,0,1.6-0.5c2.2-1.9,4.4-3.6,6.3-5.5c0.8-0.8,1.1-1.9,1.9-2.5
		s1.9-0.8,2.7-0.8l0.5,0.8c-1.1,1.1-2.2,1.9-3,3c-1.9,1.6-3.6,3.3-5.5,5.2c-1.9,1.9-3.8,3.8-5.5,6
		C194.5,182.3,195.3,182.9,195.8,183.4z"/>
	<path class="st0" d="M213.4,163.1c-0.8,0.8-1.6,1.9-2.5,2.7c-0.5,0.3-1.6-0.3-2.5-0.5c0.3-0.5,0.5-1.1,0.8-1.4
		c1.1-0.8,2.2-1.4,3.6-1.9C212.9,162.3,213.1,162.5,213.4,163.1z"/>
</g>
</svg>
